# xmcd CD database file
#
# Track frame offsets:
#	150
#	18845
#	36003
#	46650
#	62922
#	81393
#	99091
#	118608
#	137730
#	154097
#	171338
#	183970
#	199690
#	217980
#
# Disc length: 3166 seconds
#
# Revision: 1
# Processed by: cddbd v1.4PL0 Copyright (c) Steve Scherf et al.
# Submitted via: NeoAudio 9.9.9
#
DISCID=b20c5c0e
DTITLE=Marcello Caminha - Clássicos Gaúchos Ao Violão (Nativismo Instrumental)
DYEAR=1900
DGENRE=Country
TTITLE0=Tertúlia
TTITLE1=Canto Alegretense
TTITLE2=Baile De Candeeiro
TTITLE3=Guri
TTITLE4=Céu, Sol, Sul, Terra E Cor
TTITLE5=Vento Negro
TTITLE6=Gaudêncio Sete Luas
TTITLE7=Esquilador
TTITLE8=Veterano
TTITLE9=Tropa De Osso
TTITLE10=Última Lembrança
TTITLE11=Desgarrados
TTITLE12=De Lua e Sol
TTITLE13=Cordas De Espinho
EXTD=
EXTT0=
EXTT1=
EXTT2=
EXTT3=
EXTT4=
EXTT5=
EXTT6=
EXTT7=
EXTT8=
EXTT9=
EXTT10=
EXTT11=
EXTT12=
EXTT13=
PLAYORDER=
